<svg xmlns="http://www.w3.org/2000/svg" width="24.392" height="34.153" viewBox="0 0 24.392 34.153">
  <g id="c-location" transform="translate(-1.588 758.804)">
    <path id="path1943" d="M13.789-760.8a12.223,12.223,0,0,0-12.2,12.2c0,4.792,2.891,10.047,5.689,14.245a70.318,70.318,0,0,0,5.6,7.3,1.218,1.218,0,0,0,.905.4,1.219,1.219,0,0,0,.905-.4,70.412,70.412,0,0,0,5.6-7.3c2.8-4.2,5.689-9.453,5.689-14.245a12.215,12.215,0,0,0-12.191-12.2Zm0,2.44a9.739,9.739,0,0,1,9.752,9.764c0,3.747-2.587,8.858-5.277,12.894a49.738,49.738,0,0,1-4.474,5.845,49.6,49.6,0,0,1-4.477-5.845c-2.691-4.036-5.284-9.148-5.284-12.894a9.747,9.747,0,0,1,9.761-9.764Zm0,4.882A4.9,4.9,0,0,0,8.907-748.6a4.9,4.9,0,0,0,4.882,4.88,4.9,4.9,0,0,0,4.879-4.88A4.9,4.9,0,0,0,13.789-753.483Zm0,2.44a2.423,2.423,0,0,1,2.44,2.442,2.422,2.422,0,0,1-2.44,2.44,2.422,2.422,0,0,1-2.44-2.44A2.423,2.423,0,0,1,13.789-751.043Z" transform="translate(0 2.001)" fill="#ff560f"/>
  </g>
</svg>
