<svg xmlns="http://www.w3.org/2000/svg" xmlns:xlink="http://www.w3.org/1999/xlink" width="18" height="18" viewBox="0 0 18 18">
  <defs>
    <clipPath id="clip-fax">
      <rect width="18" height="18"/>
    </clipPath>
  </defs>
  <g id="fax" clip-path="url(#clip-fax)">
    <path id="fax-2" data-name="fax" d="M12.417,13.38h-.366V12.262a.268.268,0,0,0-.268-.268h-.872V8.9a.268.268,0,0,0-.268-.268H3.084a.268.268,0,0,0-.268.268v3.09H1.944a.268.268,0,0,0-.268.268V13.38H1.309A1.311,1.311,0,0,0,0,14.689v3.587a1.311,1.311,0,0,0,1.31,1.31H2.815v2.046a.268.268,0,0,0,.268.268h7.559a.268.268,0,0,0,.268-.268V19.586h1.506a1.311,1.311,0,0,0,1.31-1.31V14.689A1.311,1.311,0,0,0,12.417,13.38Zm-.9-.85v.85h-.6v-.85Zm-1.14-3.358V13.38H3.352V9.172ZM2.212,12.53h.6v.85h-.6Zm8.163,8.833H3.352V18.351h7.023v3.012Zm2.042-2.314H10.911v-.966a.268.268,0,0,0-.268-.268H3.084a.268.268,0,0,0-.268.268v.966H1.309a.774.774,0,0,1-.773-.773v-3.2H4.9a.268.268,0,0,0,0-.536H.55a.774.774,0,0,1,.759-.627H12.417a.775.775,0,0,1,.759.627H8.83a.268.268,0,0,0,0,.536h4.36v3.2A.774.774,0,0,1,12.417,19.049Zm-8.387.163a.268.268,0,0,1,.268-.268h5.13a.268.268,0,1,1,0,.536H4.3a.268.268,0,0,1-.268-.268Zm0,1.29a.268.268,0,0,1,.268-.268h5.13a.268.268,0,1,1,0,.536H4.3A.268.268,0,0,1,4.03,20.5Zm3.112-5.691a.268.268,0,0,1-.268.268H6.852a.268.268,0,1,1,0-.536h.022A.268.268,0,0,1,7.142,14.811Zm-.864,0a.268.268,0,0,1-.268.268H5.989a.268.268,0,0,1,0-.536H6.01A.268.268,0,0,1,6.278,14.811Zm1.728,0a.268.268,0,0,1-.268.268H7.716a.268.268,0,0,1,0-.536h.022A.268.268,0,0,1,8.006,14.811Z" transform="translate(2 -6.636)" fill="#fff"/>
  </g>
</svg>
