<svg xmlns="http://www.w3.org/2000/svg" xmlns:xlink="http://www.w3.org/1999/xlink" width="100" height="100" viewBox="0 0 100 100">
  <defs>
    <clipPath id="clip-path">
      <rect id="ic-ge-03" width="100" height="100" transform="translate(583 3755)" fill="#ff560f"/>
    </clipPath>
  </defs>
  <g id="ic-ge-03-2" data-name="ic-ge-03" transform="translate(-583 -3755)" clip-path="url(#clip-path)">
    <g id="network" transform="translate(583 3755)">
      <path id="Path_7806" data-name="Path 7806" d="M91.776,64.274a43.867,43.867,0,0,0-.005-28.543,8.783,8.783,0,0,0-8.525-14.778A43.865,43.865,0,0,0,58.534,6.692a8.788,8.788,0,0,0-17.067-.007A43.867,43.867,0,0,0,16.761,20.956a8.783,8.783,0,0,0-8.537,14.77,43.867,43.867,0,0,0,.005,28.543,8.783,8.783,0,0,0,8.525,14.778A43.865,43.865,0,0,0,41.465,93.308a8.788,8.788,0,0,0,17.067.007A43.867,43.867,0,0,0,83.239,79.044a8.783,8.783,0,0,0,8.537-14.77ZM88.619,29.395a2.93,2.93,0,1,1-2.93-2.93A2.933,2.933,0,0,1,88.619,29.395ZM50,5.859a2.93,2.93,0,1,1-2.93,2.93A2.933,2.933,0,0,1,50,5.859ZM14.31,26.465a2.93,2.93,0,1,1-2.93,2.93A2.933,2.933,0,0,1,14.31,26.465Zm-2.93,44.141a2.93,2.93,0,1,1,2.93,2.93A2.933,2.933,0,0,1,11.381,70.605ZM50,94.141a2.93,2.93,0,1,1,2.93-2.93A2.933,2.933,0,0,1,50,94.141Zm7.944-6.685a8.786,8.786,0,0,0-15.886-.007A38.028,38.028,0,0,1,21.533,75.605,8.783,8.783,0,0,0,14.31,61.816c-.24,0-.477.012-.712.031a38.028,38.028,0,0,1-.008-23.7c.238.019.477.032.719.032A8.783,8.783,0,0,0,21.537,24.4,38.028,38.028,0,0,1,42.055,12.545a8.786,8.786,0,0,0,15.886.007A38.028,38.028,0,0,1,78.467,24.395,8.783,8.783,0,0,0,85.69,38.184c.24,0,.477-.012.712-.031a38.028,38.028,0,0,1,.008,23.7c-.238-.019-.477-.032-.719-.032A8.783,8.783,0,0,0,78.463,75.6,38.03,38.03,0,0,1,57.944,87.455ZM85.69,73.535a2.93,2.93,0,1,1,2.93-2.93A2.933,2.933,0,0,1,85.69,73.535Z" fill="#ff560f"/>
      <path id="Path_7807" data-name="Path 7807" d="M50,23.438A26.563,26.563,0,1,0,76.563,50,26.593,26.593,0,0,0,50,23.438ZM67.652,39.193H59.972a40.432,40.432,0,0,0-2.2-8.381A20.826,20.826,0,0,1,67.652,39.193ZM70.7,50a20.677,20.677,0,0,1-.6,4.948H60.638c.113-1.645.169-3.3.169-4.948s-.056-3.3-.169-4.948H70.1A20.677,20.677,0,0,1,70.7,50ZM50,70.689c-.392-.186-1.758-1.481-3.014-5.6a38.538,38.538,0,0,1-1.019-4.278h8.065a38.451,38.451,0,0,1-1.019,4.278C51.758,69.208,50.392,70.5,50,70.689ZM45.234,54.948c-.119-1.607-.182-3.265-.182-4.948s.063-3.34.182-4.948h9.532c.119,1.607.182,3.265.182,4.948s-.063,3.34-.182,4.948ZM29.3,50a20.677,20.677,0,0,1,.6-4.948h9.466c-.113,1.645-.169,3.3-.169,4.948s.056,3.3.169,4.948H29.9A20.677,20.677,0,0,1,29.3,50ZM50,29.311c.392.186,1.758,1.481,3.014,5.6a38.537,38.537,0,0,1,1.019,4.278H45.968a38.451,38.451,0,0,1,1.019-4.278C48.242,30.792,49.608,29.5,50,29.311Zm-7.771,1.5a40.432,40.432,0,0,0-2.2,8.381H32.348A20.828,20.828,0,0,1,42.229,30.812Zm-9.88,30h7.679a40.432,40.432,0,0,0,2.2,8.381A20.826,20.826,0,0,1,32.348,60.807Zm25.423,8.381a40.432,40.432,0,0,0,2.2-8.381h7.679A20.828,20.828,0,0,1,57.771,69.188Z" fill="#ff560f"/>
    </g>
  </g>
</svg>
