<svg height="200" viewBox="0 0 200 200" width="200" xmlns="http://www.w3.org/2000/svg" xmlns:xlink="http://www.w3.org/1999/xlink"><clipPath id="a"><path d="m0 0h200v200h-200z"/></clipPath><g clip-path="url(#a)"><g fill="#0f4c81" transform="translate(-117.3 -57.214)"><path d="m117.3 87.8h38.456s11.136 0 16.988 11.85l45.01 93.971-13.777 33.426s-58.754-123.547-60.995-127.297c-4.482-7.402-10.701-11.95-25.682-11.95z"/><path d="m301.5 87.8h38.456s11.135 0 16.988 11.85l45.01 93.971-13.777 33.426s-58.755-123.547-60.995-127.297c-4.448-7.402-10.701-11.95-25.682-11.95z" transform="translate(-123.508)"/><path d="m518.529 99.169c4.314 7.022 18.158 37.654 18.158 37.654 18.827-3.177 35.179-13.61 36.082-24.445 1.672-19.7-25.08-24.478-46.682-24.478h-27.087c13.008-.034 17.121 7.323 19.529 11.269z" transform="translate(-255.544 -.066)"/></g></g></svg>