<svg xmlns="http://www.w3.org/2000/svg" width="236" height="236" viewBox="0 0 236 236">
  <g id="graphic-point-primary" transform="translate(-0.179 -0.206)" opacity="0.6">
    <circle id="Ellipse_1218" data-name="Ellipse 1218" cx="4" cy="4" r="4" transform="translate(0.179 0.206)" fill="#002359" opacity="0.4"/>
    <ellipse id="Ellipse_1219" data-name="Ellipse 1219" cx="4.5" cy="4" rx="4.5" ry="4" transform="translate(32.179 0.206)" fill="#002359" opacity="0.4"/>
    <ellipse id="Ellipse_1220" data-name="Ellipse 1220" cx="4" cy="4.5" rx="4" ry="4.5" transform="translate(0.179 32.206)" fill="#002359" opacity="0.6"/>
    <circle id="Ellipse_1221" data-name="Ellipse 1221" cx="4.5" cy="4.5" r="4.5" transform="translate(32.179 32.206)" fill="#002359" opacity="0.6"/>
    <circle id="Ellipse_1222" data-name="Ellipse 1222" cx="4" cy="4" r="4" transform="translate(65.179 0.206)" fill="#002359" opacity="0.4"/>
    <circle id="Ellipse_1223" data-name="Ellipse 1223" cx="4" cy="4" r="4" transform="translate(98.179 0.206)" fill="#002359" opacity="0.4"/>
    <ellipse id="Ellipse_1224" data-name="Ellipse 1224" cx="4" cy="4.5" rx="4" ry="4.5" transform="translate(65.179 32.206)" fill="#002359" opacity="0.6"/>
    <ellipse id="Ellipse_1225" data-name="Ellipse 1225" cx="4" cy="4.5" rx="4" ry="4.5" transform="translate(98.179 32.206)" fill="#002359" opacity="0.6"/>
    <circle id="Ellipse_1226" data-name="Ellipse 1226" cx="4" cy="4" r="4" transform="translate(0.179 65.206)" fill="#002359" opacity="0.8"/>
    <ellipse id="Ellipse_1227" data-name="Ellipse 1227" cx="4.5" cy="4" rx="4.5" ry="4" transform="translate(32.179 65.206)" fill="#002359" opacity="0.8"/>
    <circle id="Ellipse_1228" data-name="Ellipse 1228" cx="4" cy="4" r="4" transform="translate(0.179 98.206)" fill="#002359"/>
    <ellipse id="Ellipse_1229" data-name="Ellipse 1229" cx="4.5" cy="4" rx="4.5" ry="4" transform="translate(32.179 98.206)" fill="#002359"/>
    <circle id="Ellipse_1230" data-name="Ellipse 1230" cx="4" cy="4" r="4" transform="translate(65.179 65.206)" fill="#002359" opacity="0.8"/>
    <circle id="Ellipse_1231" data-name="Ellipse 1231" cx="4" cy="4" r="4" transform="translate(98.179 65.206)" fill="#002359" opacity="0.8"/>
    <circle id="Ellipse_1232" data-name="Ellipse 1232" cx="4" cy="4" r="4" transform="translate(65.179 98.206)" fill="#002359"/>
    <circle id="Ellipse_1233" data-name="Ellipse 1233" cx="4" cy="4" r="4" transform="translate(98.179 98.206)" fill="#002359"/>
    <ellipse id="Ellipse_1234" data-name="Ellipse 1234" cx="4.5" cy="4" rx="4.5" ry="4" transform="translate(130.179 0.206)" fill="#002359" opacity="0.4"/>
    <circle id="Ellipse_1235" data-name="Ellipse 1235" cx="4" cy="4" r="4" transform="translate(163.179 0.206)" fill="#002359" opacity="0.4"/>
    <circle id="Ellipse_1236" data-name="Ellipse 1236" cx="4.5" cy="4.5" r="4.5" transform="translate(130.179 32.206)" fill="#002359" opacity="0.6"/>
    <ellipse id="Ellipse_1237" data-name="Ellipse 1237" cx="4" cy="4.5" rx="4" ry="4.5" transform="translate(163.179 32.206)" fill="#002359" opacity="0.6"/>
    <circle id="Ellipse_1238" data-name="Ellipse 1238" cx="4" cy="4" r="4" transform="translate(196.179 0.206)" fill="#002359" opacity="0.4"/>
    <circle id="Ellipse_1239" data-name="Ellipse 1239" cx="4" cy="4" r="4" transform="translate(228.179 0.206)" fill="#002359" opacity="0.4"/>
    <ellipse id="Ellipse_1240" data-name="Ellipse 1240" cx="4" cy="4.5" rx="4" ry="4.5" transform="translate(196.179 32.206)" fill="#002359" opacity="0.6"/>
    <ellipse id="Ellipse_1241" data-name="Ellipse 1241" cx="4" cy="4.5" rx="4" ry="4.5" transform="translate(228.179 32.206)" fill="#002359" opacity="0.6"/>
    <ellipse id="Ellipse_1242" data-name="Ellipse 1242" cx="4.5" cy="4" rx="4.5" ry="4" transform="translate(130.179 65.206)" fill="#002359" opacity="0.8"/>
    <circle id="Ellipse_1243" data-name="Ellipse 1243" cx="4" cy="4" r="4" transform="translate(163.179 65.206)" fill="#002359" opacity="0.8"/>
    <ellipse id="Ellipse_1244" data-name="Ellipse 1244" cx="4.5" cy="4" rx="4.5" ry="4" transform="translate(130.179 98.206)" fill="#002359"/>
    <circle id="Ellipse_1245" data-name="Ellipse 1245" cx="4" cy="4" r="4" transform="translate(163.179 98.206)" fill="#002359"/>
    <circle id="Ellipse_1246" data-name="Ellipse 1246" cx="4" cy="4" r="4" transform="translate(196.179 65.206)" fill="#002359" opacity="0.8"/>
    <circle id="Ellipse_1247" data-name="Ellipse 1247" cx="4" cy="4" r="4" transform="translate(228.179 65.206)" fill="#002359" opacity="0.8"/>
    <circle id="Ellipse_1248" data-name="Ellipse 1248" cx="4" cy="4" r="4" transform="translate(196.179 98.206)" fill="#002359"/>
    <circle id="Ellipse_1249" data-name="Ellipse 1249" cx="4" cy="4" r="4" transform="translate(228.179 98.206)" fill="#002359"/>
    <circle id="Ellipse_1250" data-name="Ellipse 1250" cx="4" cy="4" r="4" transform="translate(0.179 130.206)" fill="#002359"/>
    <ellipse id="Ellipse_1251" data-name="Ellipse 1251" cx="4.5" cy="4" rx="4.5" ry="4" transform="translate(32.179 130.206)" fill="#002359"/>
    <circle id="Ellipse_1252" data-name="Ellipse 1252" cx="4" cy="4" r="4" transform="translate(0.179 163.206)" fill="#002359"/>
    <ellipse id="Ellipse_1253" data-name="Ellipse 1253" cx="4.5" cy="4" rx="4.5" ry="4" transform="translate(32.179 163.206)" fill="#002359"/>
    <circle id="Ellipse_1254" data-name="Ellipse 1254" cx="4" cy="4" r="4" transform="translate(65.179 130.206)" fill="#002359"/>
    <circle id="Ellipse_1255" data-name="Ellipse 1255" cx="4" cy="4" r="4" transform="translate(98.179 130.206)" fill="#002359"/>
    <circle id="Ellipse_1256" data-name="Ellipse 1256" cx="4" cy="4" r="4" transform="translate(65.179 163.206)" fill="#002359"/>
    <circle id="Ellipse_1257" data-name="Ellipse 1257" cx="4" cy="4" r="4" transform="translate(98.179 163.206)" fill="#002359"/>
    <circle id="Ellipse_1258" data-name="Ellipse 1258" cx="4" cy="4" r="4" transform="translate(0.179 196.206)" fill="#002359"/>
    <ellipse id="Ellipse_1259" data-name="Ellipse 1259" cx="4.5" cy="4" rx="4.5" ry="4" transform="translate(32.179 196.206)" fill="#002359"/>
    <circle id="Ellipse_1260" data-name="Ellipse 1260" cx="4" cy="4" r="4" transform="translate(0.179 228.206)" fill="#002359"/>
    <ellipse id="Ellipse_1261" data-name="Ellipse 1261" cx="4.5" cy="4" rx="4.5" ry="4" transform="translate(32.179 228.206)" fill="#002359"/>
    <circle id="Ellipse_1262" data-name="Ellipse 1262" cx="4" cy="4" r="4" transform="translate(65.179 196.206)" fill="#002359"/>
    <circle id="Ellipse_1263" data-name="Ellipse 1263" cx="4" cy="4" r="4" transform="translate(98.179 196.206)" fill="#002359"/>
    <circle id="Ellipse_1264" data-name="Ellipse 1264" cx="4" cy="4" r="4" transform="translate(65.179 228.206)" fill="#002359"/>
    <circle id="Ellipse_1265" data-name="Ellipse 1265" cx="4" cy="4" r="4" transform="translate(98.179 228.206)" fill="#002359"/>
    <ellipse id="Ellipse_1266" data-name="Ellipse 1266" cx="4.5" cy="4" rx="4.5" ry="4" transform="translate(130.179 130.206)" fill="#002359"/>
    <circle id="Ellipse_1267" data-name="Ellipse 1267" cx="4" cy="4" r="4" transform="translate(163.179 130.206)" fill="#002359"/>
    <ellipse id="Ellipse_1268" data-name="Ellipse 1268" cx="4.5" cy="4" rx="4.5" ry="4" transform="translate(130.179 163.206)" fill="#002359"/>
    <circle id="Ellipse_1269" data-name="Ellipse 1269" cx="4" cy="4" r="4" transform="translate(163.179 163.206)" fill="#002359"/>
    <circle id="Ellipse_1270" data-name="Ellipse 1270" cx="4" cy="4" r="4" transform="translate(196.179 130.206)" fill="#002359"/>
    <circle id="Ellipse_1271" data-name="Ellipse 1271" cx="4" cy="4" r="4" transform="translate(228.179 130.206)" fill="#002359"/>
    <circle id="Ellipse_1272" data-name="Ellipse 1272" cx="4" cy="4" r="4" transform="translate(196.179 163.206)" fill="#002359"/>
    <circle id="Ellipse_1273" data-name="Ellipse 1273" cx="4" cy="4" r="4" transform="translate(228.179 163.206)" fill="#002359"/>
    <ellipse id="Ellipse_1274" data-name="Ellipse 1274" cx="4.5" cy="4" rx="4.5" ry="4" transform="translate(130.179 196.206)" fill="#002359"/>
    <circle id="Ellipse_1275" data-name="Ellipse 1275" cx="4" cy="4" r="4" transform="translate(163.179 196.206)" fill="#002359"/>
    <ellipse id="Ellipse_1276" data-name="Ellipse 1276" cx="4.5" cy="4" rx="4.5" ry="4" transform="translate(130.179 228.206)" fill="#002359"/>
    <circle id="Ellipse_1277" data-name="Ellipse 1277" cx="4" cy="4" r="4" transform="translate(163.179 228.206)" fill="#002359"/>
    <circle id="Ellipse_1278" data-name="Ellipse 1278" cx="4" cy="4" r="4" transform="translate(196.179 196.206)" fill="#002359"/>
    <circle id="Ellipse_1279" data-name="Ellipse 1279" cx="4" cy="4" r="4" transform="translate(228.179 196.206)" fill="#002359"/>
    <circle id="Ellipse_1280" data-name="Ellipse 1280" cx="4" cy="4" r="4" transform="translate(196.179 228.206)" fill="#002359"/>
    <circle id="Ellipse_1281" data-name="Ellipse 1281" cx="4" cy="4" r="4" transform="translate(228.179 228.206)" fill="#002359"/>
  </g>
</svg>
